<svg width="320" height="200" viewBox="0 0 320 200" fill="none" xmlns="http://www.w3.org/2000/svg" role="img" aria-labelledby="title desc">
  <title id="title">Lehigh Valley Wellness Logo</title>
  <desc id="desc">Stylized outline of a brain shaped like mountain peaks with Lehigh Valley Wellness text.</desc>
  <defs>
    <linearGradient id="logoGradient" x1="72" y1="18" x2="248" y2="180" gradientUnits="userSpaceOnUse">
      <stop offset="0%" stop-color="#3EC5F1" />
      <stop offset="100%" stop-color="#177CB8" />
    </linearGradient>
  </defs>
  <g transform="translate(16 12)">
    <path d="M82.2 18C55.7 18 36 34.7 36 61.6c0 11.4 3.9 21.1 10.6 28.8-4.5 7.7-6.6 16.5-6.6 26.6 0 24.6 18.7 43 45.8 43 8.9 0 16.8-1.9 23.6-5.2 7.4 9.4 18.6 15.6 32.5 15.6 11.5 0 21.5-3.7 29-10 6.4 5.9 14.8 9.4 24.9 9.4 25 0 44.2-19.3 44.2-46.3 0-7.9-1.7-15.1-4.9-21.4 5.1-7.5 7.9-16.5 7.9-26.4 0-26.5-18-47.5-45.7-47.5-6.7 0-12.8 1.1-18.3 3.2C171.5 29.6 158 18 137.6 18c-9.4 0-18.5 2.8-26 7.6-8.3-4.6-17.8-7.6-29.4-7.6z" fill="none" stroke="url(#logoGradient)" stroke-width="14" stroke-linecap="round" stroke-linejoin="round"/>
    <path d="M85 128l28-38 24 24 44-52 32 40" stroke="url(#logoGradient)" stroke-width="12" stroke-linecap="round" stroke-linejoin="round" fill="none" />
  </g>
  <g font-family="'Montserrat', 'Helvetica Neue', Arial, sans-serif" font-weight="700" text-anchor="middle">
    <text x="160" y="162" font-size="32" fill="#0B4C7C">LEHIGH VALLEY</text>
    <text x="160" y="188" font-size="20" fill="#1EA7D9" letter-spacing="8">WELLNESS</text>
  </g>
</svg>
